<?xml version="1.0" standalone="no"?>
<!DOCTYPE svg PUBLIC "-//W3C//DTD SVG 20010904//EN"
 "http://www.w3.org/TR/2001/REC-SVG-20010904/DTD/svg10.dtd">
<svg version="1.0" xmlns="http://www.w3.org/2000/svg"
 width="500.000000pt" height="500.000000pt" viewBox="0 0 500.000000 500.000000"
 preserveAspectRatio="xMidYMid meet">
<metadata>
Created by potrace 1.14, written by Peter Selinger 2001-2017
</metadata>
<g transform="translate(0.000000,500.000000) scale(0.100000,-0.100000)"
fill="#000000" stroke="none">
<path d="M2184 4988 c-5 -7 -9 -19 -11 -27 -1 -8 -8 -18 -15 -22 -10 -7 -10
-9 2 -9 12 0 13 -2 1 -9 -7 -5 -10 -14 -7 -20 4 -6 0 -11 -9 -11 -9 0 -13 -5
-10 -11 4 -6 14 -8 24 -5 12 5 11 2 -3 -9 -20 -15 -33 -50 -14 -39 6 4 8 -6 5
-25 -3 -17 -1 -33 3 -36 5 -3 6 -13 3 -22 -4 -9 -2 -14 3 -10 6 3 11 -4 11
-16 2 -17 0 -19 -7 -7 -5 8 -10 11 -10 7 0 -4 7 -18 15 -31 14 -21 14 -24 0
-30 -13 -4 -13 -9 -3 -25 7 -11 15 -18 18 -16 3 2 5 -9 4 -23 -1 -15 -3 -27
-4 -27 -1 0 -3 -8 -5 -17 -2 -10 1 -18 7 -18 6 0 5 -7 -3 -16 -10 -13 -10 -17
2 -25 9 -6 10 -12 4 -16 -16 -12 -19 -47 -3 -37 9 5 8 2 -2 -11 -8 -10 -10
-16 -4 -12 16 9 24 -38 10 -54 -8 -9 -8 -10 1 -5 9 5 11 2 7 -8 -4 -10 -1 -16
7 -16 12 0 12 -2 0 -9 -7 -5 -11 -14 -7 -19 4 -7 -1 -9 -14 -7 -12 2 -18 0
-14 -6 3 -6 -2 -19 -13 -31 -10 -11 -18 -23 -17 -27 3 -18 -10 -40 -20 -34 -6
4 -4 -2 4 -12 12 -15 12 -17 1 -10 -11 6 -13 4 -8 -8 3 -9 0 -18 -9 -21 -17
-7 -14 -29 5 -37 11 -4 10 -9 -5 -24 -17 -17 -17 -18 -1 -12 10 4 17 2 18 -6
0 -7 2 -20 4 -29 2 -9 -3 -22 -11 -29 -8 -6 -11 -16 -7 -22 4 -7 0 -8 -13 -3
-15 6 -17 5 -6 -5 17 -18 15 -29 -5 -22 -16 6 -17 5 -3 -12 14 -17 13 -18 -2
-12 -17 6 -23 -3 -19 -26 1 -5 -3 -6 -9 -2 -5 3 -10 -1 -10 -10 0 -10 -5 -13
-12 -9 -6 4 -8 3 -5 -4 10 -15 -3 -43 -17 -35 -7 4 -7 1 1 -9 7 -8 11 -17 8
-20 -3 -3 -6 -21 -7 -41 -1 -23 -5 -34 -12 -30 -8 5 -7 2 0 -8 6 -8 9 -23 7
-34 -10 -44 -9 -60 1 -67 7 -5 4 -8 -7 -8 -15 0 -16 -3 -6 -21 8 -15 8 -19 0
-15 -16 10 -13 0 4 -18 13 -13 14 -19 3 -36 -11 -17 -11 -22 1 -29 9 -6 11
-16 7 -27 -6 -16 -9 -16 -17 -4 -9 12 -10 12 -5 -2 3 -10 0 -18 -6 -18 -6 0
-8 -3 -5 -6 4 -4 13 -1 21 5 10 8 16 9 21 1 3 -5 0 -10 -7 -10 -8 0 -6 -5 5
-11 21 -12 22 -29 2 -29 -8 0 -15 -5 -15 -11 0 -5 -5 -7 -12 -3 -7 4 -8 3 -4
-4 5 -8 13 -9 25 -3 10 6 23 6 32 0 12 -7 12 -9 -1 -9 -12 0 -12 -2 -1 -9 9
-6 10 -11 2 -15 -6 -4 -9 -12 -5 -17 4 -6 11 -6 20 2 17 14 19 -2 2 -19 -9 -9
-9 -12 1 -12 7 0 11 -6 8 -15 -4 -8 -1 -17 5 -21 7 -5 8 -2 4 7 -4 8 2 3 13
-10 12 -13 21 -29 21 -36 0 -7 6 -16 13 -18 9 -4 8 -8 -3 -17 -13 -9 -12 -10
5 -8 16 2 21 -3 23 -29 2 -18 8 -33 13 -33 6 0 8 -4 4 -9 -3 -5 1 -15 8 -23 7
-7 16 -22 20 -32 6 -15 5 -17 -6 -7 -12 9 -14 6 -11 -21 2 -18 0 -28 -4 -22
-9 14 -71 24 -78 12 -3 -5 0 -17 7 -26 7 -9 10 -14 5 -10 -5 4 -17 3 -27 -2
-14 -8 -21 -5 -33 12 -9 12 -16 18 -16 12 0 -5 5 -15 12 -22 8 -8 8 -15 -2
-27 -8 -10 -9 -15 -1 -15 6 0 11 -5 11 -12 0 -9 -3 -9 -11 -1 -13 13 -59 -3
-59 -19 0 -5 6 -6 13 -2 9 5 9 4 0 -6 -6 -7 -9 -20 -6 -29 3 -9 -5 -1 -17 17
-28 40 -35 42 -15 2 9 -16 11 -30 6 -30 -5 0 -12 8 -15 18 -3 10 -14 18 -25
18 -15 0 -17 -3 -8 -18 9 -13 14 -14 20 -5 6 8 7 6 3 -6 -3 -10 -6 -24 -6 -30
0 -7 -7 -3 -15 7 -8 11 -15 14 -15 8 0 -7 -7 -12 -16 -12 -8 0 -12 -5 -9 -10
5 -8 11 -7 21 1 8 7 14 7 14 1 0 -19 -33 -23 -52 -6 -10 10 -21 14 -25 11 -3
-4 0 -7 8 -7 12 0 12 -2 0 -9 -15 -10 -7 -31 12 -31 8 0 8 3 -2 9 -8 5 -9 11
-3 15 5 3 13 -1 16 -9 8 -21 -20 -31 -39 -15 -10 9 -15 9 -15 1 0 -6 5 -11 11
-11 5 0 7 -5 4 -10 -5 -8 -12 -7 -23 2 -15 11 -15 11 -5 -3 10 -12 10 -18 0
-29 -9 -10 -9 -11 1 -6 6 4 12 2 12 -4 0 -6 4 -8 10 -5 6 3 7 -1 4 -9 -5 -12
-10 -13 -26 -5 -11 6 -22 8 -26 5 -3 -3 0 -6 7 -6 7 0 10 -4 6 -10 -3 -5 -13
-7 -23 -4 -14 5 -15 4 -2 -5 8 -5 11 -13 7 -17 -3 -4 -13 -2 -20 4 -8 7 -17 9
-20 5 -4 -3 -15 0 -24 8 -17 13 -17 13 0 -7 14 -17 15 -21 2 -21 -8 0 -15 3
-15 7 0 4 -6 7 -13 7 -9 0 -12 -9 -9 -25 3 -17 7 -20 13 -10 7 10 9 9 9 -4 0
-10 -7 -18 -16 -18 -9 0 -12 -5 -8 -12 4 -6 3 -8 -4 -4 -5 3 -13 0 -16 -6 -3
-7 -4 -4 -1 8 4 14 0 21 -9 21 -9 0 -13 -4 -10 -9 3 -4 3 -17 -1 -28 -8 -26
-38 -14 -31 13 3 15 2 17 -6 9 -9 -9 -8 -18 0 -37 15 -32 15 -38 2 -30 -12 7
-9 -17 3 -26 4 -3 1 -12 -8 -19 -13 -11 -15 -10 -9 4 3 9 1 16 -5 16 -7 0 -14
-7 -17 -15 -5 -12 -10 -13 -20 -4 -11 9 -14 9 -14 0 0 -7 -4 -9 -10 -6 -5 3
-10 1 -10 -5 0 -7 7 -10 15 -6 8 3 15 1 15 -5 0 -6 5 -7 12 -3 7 5 8 3 3 -6
-6 -10 -4 -12 9 -7 10 4 15 3 11 -3 -7 -11 -33 -9 -53 4 -12 7 -12 4 -2 -14 6
-12 9 -24 6 -28 -3 -3 -6 -1 -6 5 0 12 -50 36 -58 28 -3 -3 -1 -5 5 -5 5 0 10
-7 10 -15 0 -9 -6 -14 -14 -11 -7 3 -12 2 -12 -2 4 -25 -3 -34 -21 -29 -11 3
-18 1 -14 -4 3 -5 17 -9 32 -10 24 0 25 -1 7 -8 -11 -5 -23 -7 -27 -5 -4 3
-10 -1 -14 -7 -4 -8 -3 -9 4 -5 7 4 12 1 12 -6 0 -10 2 -10 9 1 5 7 11 9 14 5
3 -5 -1 -15 -9 -22 -8 -7 -14 -8 -14 -2 0 18 -22 11 -27 -10 -3 -11 -12 -20
-20 -20 -9 0 -11 -5 -7 -12 4 -7 -3 -4 -15 6 -22 20 -22 20 -15 0 7 -17 6 -18
-12 -4 -18 14 -18 14 -3 -5 17 -20 15 -45 -2 -45 -6 0 -7 5 -3 12 4 7 3 8 -5
4 -15 -10 -5 -26 17 -27 10 0 6 -5 -10 -11 -16 -5 -28 -14 -28 -19 0 -4 7 -6
15 -3 8 4 15 2 15 -3 0 -5 -8 -10 -17 -11 -37 -4 -53 -8 -60 -17 -4 -4 -2 -5
5 -1 7 4 12 1 12 -9 0 -10 -5 -14 -12 -10 -7 4 -6 1 2 -7 8 -7 16 -22 17 -33
1 -17 -1 -17 -17 5 -19 25 -19 25 -13 2 4 -18 1 -24 -16 -29 -11 -3 -18 -10
-14 -16 3 -6 1 -7 -5 -3 -8 5 -12 -2 -12 -18 0 -20 -5 -26 -21 -26 -11 0 -18
-4 -14 -10 3 -5 12 -7 19 -4 7 3 19 -3 27 -13 13 -17 13 -17 -4 -4 -15 12 -20
12 -30 1 -10 -10 -9 -11 3 -5 8 5 12 5 8 0 -4 -4 -3 -14 4 -22 9 -11 8 -13 -3
-11 -9 2 -13 -4 -11 -15 3 -15 -1 -17 -20 -12 -13 4 -20 4 -16 0 5 -5 -2 -13
-14 -19 -27 -13 -37 -46 -14 -46 8 0 18 -5 22 -12 4 -7 3 -8 -4 -4 -7 4 -12 1
-12 -8 0 -14 -35 -33 -53 -28 -4 1 -3 -7 3 -18 8 -15 17 -19 32 -14 14 4 18 3
13 -6 -4 -7 -18 -9 -34 -6 l-26 6 27 -15 c30 -17 38 -28 13 -19 -8 4 -15 1
-15 -6 0 -6 -4 -8 -10 -5 -5 3 -10 0 -10 -9 0 -8 5 -16 11 -18 7 -2 5 -9 -5
-17 -14 -12 -16 -12 -11 1 3 8 0 20 -8 26 -11 9 -14 8 -14 -3 0 -8 5 -12 10
-8 5 3 6 -3 2 -16 -4 -15 -2 -21 8 -21 8 0 17 -6 20 -13 3 -9 -5 -12 -29 -12
-19 1 -34 1 -34 -1 0 -1 12 -9 26 -19 15 -9 23 -12 20 -6 -4 6 -2 11 3 11 15
0 14 -15 -3 -29 -11 -9 -15 -9 -18 1 -3 8 -7 6 -11 -6 -4 -9 -3 -15 2 -12 4 3
16 -1 26 -8 14 -10 15 -15 5 -21 -8 -5 -11 -4 -6 3 4 7 -4 10 -24 10 -29 -1
-37 -8 -23 -21 3 -4 13 -1 21 6 13 10 14 9 10 -3 -3 -8 -14 -15 -25 -14 -11 0
-20 -5 -20 -12 0 -7 3 -13 6 -12 20 2 20 -4 0 -22 -13 -10 -18 -19 -11 -20 6
0 12 5 12 11 0 6 6 9 14 6 8 -3 16 -1 19 6 2 6 6 3 10 -7 4 -9 3 -15 -1 -12
-4 2 -18 -2 -32 -10 -14 -7 -20 -13 -13 -14 6 0 10 -8 8 -17 -2 -10 -4 -26 -4
-36 -1 -10 -4 -16 -8 -14 -5 3 -14 -1 -21 -9 -17 -18 -2 -18 24 0 17 13 21 13
21 1 0 -8 -4 -12 -9 -9 -4 3 -8 1 -8 -5 0 -5 6 -12 13 -15 6 -3 3 -4 -9 -1
-14 4 -21 0 -21 -9 0 -8 3 -15 6 -14 20 2 22 -4 5 -17 -18 -14 -18 -14 4 -10
19 3 22 2 12 -10 -6 -7 -9 -27 -7 -44 3 -18 1 -29 -5 -28 -6 1 -13 -5 -15 -13
-4 -13 -3 -13 6 0 6 8 11 11 11 7 0 -4 9 -3 20 3 25 13 26 7 2 -16 -20 -21
-24 -54 -7 -60 6 -3 10 -17 7 -34 -4 -31 6 -38 26 -18 7 7 12 10 13 8 0 -3 2
-13 4 -23 2 -9 -1 -15 -6 -11 -5 3 -9 0 -9 -7 0 -6 -8 -18 -17 -26 -10 -8 -12
-12 -6 -8 7 3 13 2 13 -2 0 -5 -6 -15 -13 -23 -6 -8 -2 -7 9 3 21 17 22 17 29
0 5 -10 9 -25 9 -33 1 -8 5 -21 10 -29 11 -18 16 -72 5 -66 -4 3 -11 0 -15 -7
-4 -7 -4 -10 1 -6 4 4 16 3 27 -3 18 -10 19 -11 2 -23 -16 -12 -16 -13 0 -19
10 -4 15 -3 11 3 -3 6 1 7 10 3 9 -3 13 -9 8 -12 -15 -10 -13 -53 4 -70 15
-15 15 -16 0 -19 -9 -2 -14 -9 -10 -18 3 -7 10 -11 16 -7 6 3 7 1 3 -5 -4 -6
-4 -23 0 -37 5 -22 9 -24 23 -13 13 10 13 9 -1 -8 -22 -26 -22 -26 2 -54 12
-13 20 -18 20 -10 0 7 3 10 6 7 4 -4 1 -13 -6 -22 -10 -12 -10 -15 1 -15 10 0
10 -3 1 -12 -17 -17 -15 -33 3 -18 9 7 18 10 22 6 3 -3 2 -6 -4 -6 -5 0 -10
-7 -10 -15 0 -16 8 -19 23 -7 5 4 1 -1 -10 -11 -19 -18 -19 -18 7 -13 15 2 30
0 33 -6 4 -7 2 -8 -4 -4 -7 4 -12 2 -12 -3 0 -6 5 -11 11 -11 5 0 7 -4 4 -10
-3 -5 -1 -10 5 -10 6 0 9 -4 6 -9 -7 -10 22 -24 33 -16 4 2 8 -2 8 -9 0 -8 -5
-13 -11 -12 -6 2 -8 1 -3 -1 4 -3 5 -8 3 -12 -3 -4 7 -6 23 -3 17 2 32 -2 42
-14 13 -16 12 -16 -11 -4 -22 12 -24 11 -13 -2 7 -8 9 -19 5 -23 -4 -5 5 -1
20 8 35 22 44 22 27 0 -12 -15 -12 -16 4 -10 17 7 48 -6 75 -31 10 -9 10 -12
1 -12 -7 0 -9 -3 -6 -6 4 -4 13 -2 20 5 11 9 17 7 28 -6 9 -11 10 -14 2 -9 -7
4 -13 2 -13 -3 0 -10 5 -12 25 -11 3 0 17 -11 32 -24 14 -13 34 -23 44 -21 11
2 19 0 19 -6 0 -5 7 -9 15 -9 8 0 15 -6 15 -12 0 -10 2 -10 9 0 7 11 9 10 15
-3 3 -9 10 -14 15 -11 5 4 35 -8 67 -25 31 -17 53 -26 49 -19 -6 10 -4 11 6 4
8 -5 22 -9 32 -10 9 -1 20 -3 25 -4 22 -7 108 -4 114 5 5 6 8 5 8 -2 0 -9 7
-10 23 -5 12 5 29 8 37 7 8 -1 20 2 25 5 6 4 25 7 43 8 31 2 79 25 93 45 3 4
12 7 20 5 8 -2 13 2 12 9 -2 8 4 10 15 6 15 -6 15 -5 4 10 -12 14 -11 16 7 12
23 -4 27 5 10 22 -7 7 -3 10 15 8 15 -2 24 1 20 6 -3 5 -10 7 -15 4 -13 -9
-11 4 4 19 12 12 20 16 33 16 4 0 2 6 -4 13 -13 16 -3 31 23 35 17 2 16 0 -5
-13 l-25 -16 35 7 c32 6 33 5 21 -10 -8 -10 -10 -16 -5 -15 5 1 18 1 28 0 20
-1 20 -1 0 -16 -19 -15 -19 -15 1 -8 18 6 18 5 6 -10 -8 -10 -11 -20 -7 -24 3
-3 6 -1 6 5 0 7 9 12 20 12 18 0 19 -3 9 -22 -9 -19 -9 -21 2 -10 15 14 33 16
24 2 -9 -14 14 -52 27 -44 7 5 9 0 6 -14 -4 -12 -2 -20 2 -17 5 3 10 2 13 -2
2 -5 2 -1 0 7 -2 8 11 0 27 -18 17 -18 28 -37 25 -42 -5 -9 10 -15 18 -7 2 1
14 -5 28 -15 16 -10 31 -13 39 -8 8 5 19 6 25 2 17 -11 75 -9 75 2 0 8 3 8 8
1 8 -12 27 -13 37 -3 4 4 16 3 26 -3 11 -5 19 -6 19 -1 0 4 18 8 40 7 22 -1
40 1 40 4 0 4 34 6 75 6 45 -1 75 3 75 10 0 5 5 3 10 -5 6 -10 10 -11 10 -3 0
9 7 10 23 4 18 -7 26 -5 36 10 6 11 16 17 21 14 6 -3 10 -1 10 5 0 6 3 9 8 7
9 -6 33 19 25 27 -4 3 -1 6 6 6 7 0 9 5 5 12 -5 8 -2 9 11 5 17 -7 17 -6 0 19
-9 15 -12 23 -6 20 7 -5 9 -1 5 8 -3 9 -11 16 -18 16 -6 0 -3 7 8 15 18 13 17
14 -7 20 -19 5 -24 12 -22 31 1 17 -2 24 -10 20 -9 -3 -11 2 -8 15 4 15 8 17
19 8 13 -10 18 -6 15 13 0 4 6 5 14 2 8 -4 15 -11 15 -17 0 -14 15 1 15 16 1
7 6 11 11 10 6 -1 11 5 11 13 0 10 -4 11 -11 4 -5 -5 -14 -10 -18 -10 -8 0 23
37 32 37 20 1 23 5 10 13 -10 6 -11 10 -2 10 6 0 12 5 12 11 0 5 -4 8 -8 5 -5
-3 -9 1 -9 8 0 8 5 12 11 10 8 -3 11 10 10 36 0 23 3 43 7 46 4 2 6 -5 4 -16
-3 -15 1 -19 15 -17 27 4 37 17 14 18 -11 0 -13 3 -6 6 6 2 9 10 5 16 -4 7 1
6 10 -2 15 -12 17 -12 12 2 -4 8 -1 18 5 22 9 6 9 10 -1 16 -9 6 -3 8 18 5 24
-2 31 1 31 13 0 9 3 25 7 35 6 15 5 17 -5 11 -8 -5 -11 -4 -6 3 4 6 14 8 23 5
11 -4 14 -3 9 6 -4 6 -3 18 4 26 8 9 8 15 0 20 -6 3 -8 11 -4 16 3 5 10 7 15
4 5 -4 9 -1 9 4 0 6 9 3 19 -6 11 -9 18 -20 15 -25 -3 -4 0 -8 6 -8 6 0 9 -4
6 -9 -3 -4 3 -19 14 -31 11 -12 17 -27 14 -31 -3 -5 -1 -9 3 -9 5 0 10 -10 10
-22 1 -13 7 -24 13 -26 5 -2 10 -12 10 -23 0 -10 5 -19 10 -19 6 0 10 -7 10
-15 0 -8 7 -15 16 -15 11 0 14 -5 10 -17 -4 -10 -4 -15 -1 -11 4 4 18 -3 32
-15 13 -12 26 -20 27 -17 1 3 10 -3 20 -12 9 -10 15 -22 12 -27 -3 -5 2 -8 12
-7 9 0 16 -5 14 -12 -1 -8 2 -11 7 -8 13 9 42 -4 35 -16 -6 -10 25 -6 76 8 27
8 100 61 99 72 -3 18 2 33 9 29 4 -3 8 6 8 19 1 13 -3 24 -9 24 -5 0 -2 9 7
19 11 13 14 21 7 26 -8 4 -7 11 3 20 8 9 12 24 9 36 -4 13 -2 20 4 16 5 -3 17
9 26 28 10 20 12 35 6 37 -6 2 -7 11 -4 21 4 9 12 14 19 10 6 -4 3 6 -8 21
-10 16 -14 26 -9 23 5 -3 9 5 9 19 0 19 -4 23 -20 18 -17 -4 -18 -3 -6 5 13 9
12 12 -5 26 -20 16 -19 16 4 9 21 -5 22 -4 10 9 -8 8 -21 12 -29 10 -13 -4
-13 -4 0 6 13 10 13 12 0 21 -14 9 -7 14 13 11 4 -1 3 7 -2 18 -6 10 -7 21 -4
25 3 3 1 6 -6 6 -7 0 -9 5 -6 10 4 6 11 8 16 5 5 -3 6 1 3 9 -3 9 -10 16 -16
16 -5 0 -6 -6 -2 -13 4 -6 3 -9 -1 -4 -10 9 -13 57 -3 51 3 -2 9 0 13 6 3 5 2
10 -4 10 -7 0 -7 8 -1 25 7 18 6 25 -3 25 -8 0 -8 3 2 9 11 7 11 9 0 13 -11 4
-12 9 -2 26 9 16 10 23 1 28 -7 4 -8 3 -4 -4 7 -12 -6 -17 -17 -6 -7 8 3 35
12 30 3 -2 6 12 6 32 0 28 4 36 15 34 8 -2 11 0 7 5 -8 8 -12 9 -39 12 -9 1
-9 4 2 10 8 6 18 7 24 4 5 -3 6 -1 2 5 -3 6 -2 14 4 17 8 5 8 11 1 19 -6 7 -7
17 -3 22 4 4 0 3 -10 -4 -12 -10 -18 -10 -24 -1 -4 7 -3 10 2 7 5 -3 15 0 22
8 10 11 10 14 0 14 -9 0 -9 3 2 10 12 8 12 10 1 10 -11 0 -11 3 0 17 8 10 9
14 2 10 -6 -4 -14 -3 -18 3 -3 5 -2 10 2 10 5 0 9 9 9 20 0 11 -3 20 -7 20 -4
0 -10 7 -13 16 -5 14 -4 15 9 4 13 -11 14 -10 9 4 -3 9 -10 16 -15 16 -11 0
-8 38 4 56 4 7 -1 18 -10 25 -11 10 -14 10 -9 2 5 -9 2 -11 -9 -7 -14 6 -14 8
1 19 14 9 14 14 4 20 -9 6 -11 4 -5 -5 5 -9 4 -11 -4 -6 -9 6 -8 14 4 33 10
14 12 22 6 19 -6 -4 -11 -2 -11 4 0 6 -6 8 -12 5 -7 -4 -6 -1 3 7 18 15 14 42
-4 31 -7 -4 -6 1 2 10 7 9 11 17 7 17 -3 0 -1 11 4 24 7 19 5 23 -8 22 -9 0
-16 5 -15 12 2 6 -5 12 -14 12 -14 0 -13 -4 6 -24 17 -19 20 -26 9 -32 -7 -4
-10 -4 -6 1 4 4 -1 16 -12 25 -17 14 -19 22 -11 43 7 18 7 28 -1 33 -6 4 -8 3
-5 -3 3 -5 -1 -10 -9 -10 -10 0 -11 4 -4 11 5 5 10 16 10 24 0 12 -3 12 -15 2
-13 -11 -14 -10 -9 3 3 8 1 24 -5 35 -7 14 -7 19 4 19 7 0 11 -6 8 -13 -2 -6
0 -14 5 -18 5 -3 7 5 6 17 -1 12 -3 26 -3 30 -1 5 -6 5 -12 2 -6 -4 -5 2 3 14
7 12 19 19 25 16 19 -7 16 6 -4 21 -17 12 -16 13 5 9 15 -3 20 0 15 8 -3 6 -7
21 -8 32 0 17 5 21 23 19 18 -2 22 0 13 9 -16 16 -14 30 4 24 8 -4 17 -1 21 5
4 6 3 8 -3 5 -6 -4 -13 0 -17 8 -3 8 0 17 6 21 7 5 8 2 3 -6 -5 -9 -4 -11 3
-6 7 4 12 13 12 21 0 7 10 17 23 21 21 7 21 7 2 15 -11 4 -14 8 -7 8 7 1 10 6
7 11 -4 6 -11 8 -16 5 -5 -4 -9 -1 -9 4 0 6 5 11 10 11 6 0 10 7 10 16 0 9 5
13 13 9 6 -4 1 2 -12 13 -21 17 -22 20 -6 25 9 4 21 5 25 2 5 -3 12 0 16 6 4
7 3 9 -3 6 -13 -8 -36 17 -26 27 4 4 0 4 -10 0 -10 -3 -17 -1 -17 5 0 6 3 10
8 10 23 -4 34 3 28 17 -3 8 -2 12 3 9 5 -3 13 -1 16 5 4 6 1 9 -7 8 -8 -2 -12
5 -11 19 1 12 -5 24 -14 27 -13 5 -14 4 -3 -9 8 -10 9 -15 1 -15 -6 0 -11 1
-11 3 -1 1 -3 20 -5 42 -3 32 -2 35 4 15 8 -23 9 -24 10 -3 1 12 -3 25 -9 28
-12 7 -14 51 -2 58 4 2 1 2 -7 0 -8 -2 -11 2 -8 11 3 7 0 19 -6 25 -8 8 -6 15
9 27 12 10 14 14 4 11 -8 -2 -22 3 -30 11 -13 14 -12 15 3 9 23 -9 22 11 -3
31 -18 16 -18 18 -3 37 l16 20 -7 -20 c-6 -16 -5 -17 5 -8 9 9 9 16 1 26 -7 8
-9 17 -5 20 3 4 1 7 -6 7 -8 0 -11 -7 -7 -15 3 -8 0 -15 -5 -15 -7 0 -9 11 -7
25 3 15 1 22 -5 18 -6 -4 -8 0 -4 10 7 18 -24 42 -38 29 -5 -4 -5 1 -2 11 5
14 2 20 -13 24 -11 3 -20 10 -20 15 0 5 5 6 12 2 7 -4 8 -3 4 5 -4 6 -12 9
-17 6 -8 -6 -11 2 -8 21 0 4 -5 10 -12 15 -8 4 -10 11 -6 15 3 4 15 1 24 -7
16 -13 17 -12 5 3 -10 13 -10 17 0 22 7 3 4 4 -7 3 -13 -1 -20 4 -20 15 0 9
-4 20 -9 25 -5 5 -6 2 -1 -6 5 -10 4 -12 -4 -7 -7 4 -10 25 -8 51 3 37 1 42
-13 35 -12 -6 -16 -4 -16 11 0 17 15 24 39 20 5 -1 6 3 2 9 -3 6 -11 8 -16 5
-14 -9 -29 4 -22 20 3 8 11 15 18 15 22 0 26 29 5 42 -25 16 -26 30 -2 21 9
-3 14 -3 10 2 -4 4 -2 17 4 29 10 18 9 19 -4 9 -20 -17 -30 -5 -17 20 7 13 7
17 1 13 -6 -3 -14 -1 -18 5 -4 7 -3 9 3 6 6 -4 18 0 28 7 17 12 17 13 1 19
-11 5 -15 3 -10 -5 4 -7 3 -8 -5 -4 -15 10 -5 26 17 27 12 0 11 3 -5 9 -27 11
-31 22 -5 14 16 -5 16 -5 -1 9 -15 13 -16 15 -2 21 8 3 15 11 14 18 0 10 -2
10 -6 1 -2 -7 -9 -13 -14 -13 -6 0 -5 8 1 20 8 15 8 20 -2 20 -6 0 -3 7 8 15
19 15 19 15 -1 10 -16 -5 -16 -3 3 6 12 7 22 16 22 21 0 5 -6 6 -12 2 -9 -5
-9 -3 1 9 7 9 18 14 25 10 6 -4 4 2 -4 12 -14 17 -13 18 3 12 15 -6 16 -4 6
16 -11 20 -11 21 5 8 14 -12 16 -12 10 3 -3 9 -1 16 5 16 6 0 8 7 4 17 -5 12
-3 14 8 8 11 -6 12 -5 1 6 -10 11 -8 17 10 32 13 10 17 16 11 12 -7 -3 -13 -2
-13 3 0 6 7 13 16 16 10 4 14 12 10 23 -4 10 -4 14 0 11 3 -4 12 -1 19 5 11
10 9 16 -8 35 -20 22 -20 23 -2 16 18 -7 19 -6 5 11 -9 11 -10 16 -2 11 6 -4
12 -2 12 3 0 6 -6 11 -12 11 -7 1 0 8 16 17 l29 15 -24 14 c-13 7 -18 13 -11
14 6 0 12 12 12 26 0 16 -4 23 -12 18 -7 -5 -8 -3 -4 5 5 7 15 10 25 7 11 -4
10 -2 -4 10 -20 16 -20 16 3 11 23 -5 23 -5 6 14 -13 14 -14 18 -3 14 10 -4
14 3 14 24 1 19 -3 27 -12 24 -7 -3 -13 2 -13 11 0 9 -4 16 -8 16 -5 0 -9 7
-9 16 0 12 5 10 19 -7 l19 -24 -11 23 c-6 13 -9 30 -6 37 3 9 -3 12 -19 10
-14 -1 -22 2 -19 6 3 5 13 9 22 10 11 0 12 2 4 6 -6 2 -9 9 -6 15 4 6 -3 5
-16 -2 -20 -11 -21 -10 -9 12 11 21 11 22 -4 9 -21 -17 -22 -8 -1 13 14 15 13
16 -7 16 -22 0 -22 0 -3 15 10 9 13 14 5 13 -7 -2 -15 5 -16 15 -2 9 1 17 7
17 6 0 8 7 4 15 -3 8 -1 15 3 15 5 0 12 -6 14 -12 4 -10 6 -10 6 0 1 7 -6 15
-14 18 -8 4 -15 17 -15 30 0 13 -6 24 -12 24 -9 0 -8 4 2 10 11 7 11 10 2 10
-7 0 -10 5 -7 10 4 6 12 7 18 3 7 -3 3 3 -7 15 -14 17 -16 22 -5 22 9 0 10 3
4 8 -12 8 -13 22 -2 40 6 8 2 12 -10 12 -15 0 -15 2 -4 9 8 5 16 17 17 25 1 9
-2 14 -7 10 -5 -3 -9 0 -9 5 0 6 6 11 13 11 9 0 9 2 -1 8 -14 9 -25 52 -13 52
4 0 6 13 3 30 -2 17 -9 27 -15 23 -6 -4 -7 -1 -2 8 12 19 14 49 3 55 -5 3 -3
13 4 22 7 9 8 13 2 9 -7 -4 -17 0 -24 8 -11 13 -10 14 6 8 15 -5 17 -4 8 8 -6
8 -10 25 -9 38 1 16 -4 25 -17 29 -11 2 -17 10 -14 17 4 12 -39 85 -50 85 -3
0 -3 -4 0 -9 3 -5 0 -14 -8 -20 -11 -9 -13 -6 -11 13 2 18 -1 23 -11 19 -8 -3
-12 -9 -9 -13 3 -5 0 -12 -6 -16 -8 -4 -9 -3 -5 4 3 6 -2 16 -13 22 -16 8 -19
8 -15 -3 3 -8 -2 -17 -11 -21 -9 -3 -14 -2 -11 2 3 5 -1 9 -9 9 -8 0 -12 -4
-9 -9 5 -7 -10 -11 -21 -5 -2 1 -11 -7 -19 -18 -9 -11 -16 -17 -16 -12 0 4
-15 -8 -34 -27 -18 -20 -37 -32 -41 -28 -3 4 -5 0 -3 -8 2 -8 -2 -14 -9 -13
-6 1 -17 -4 -23 -12 -7 -8 -9 -15 -5 -15 3 0 -3 -12 -14 -26 -11 -15 -18 -31
-14 -37 3 -6 1 -7 -5 -3 -7 4 -12 3 -12 -2 0 -5 -17 -27 -37 -49 -50 -54 -72
-81 -68 -85 1 -1 -7 -12 -18 -23 -17 -17 -19 -17 -14 -3 5 15 4 16 -13 5 -22
-13 -28 -33 -7 -21 9 5 9 3 -1 -7 -11 -12 -14 -12 -22 1 -8 12 -10 11 -10 -5
-1 -18 -2 -18 -10 3 -13 30 -20 28 -14 -5 3 -24 2 -25 -7 -10 -5 9 -15 14 -21
11 -8 -5 -9 -1 -5 10 5 13 3 15 -9 8 -18 -10 -64 -4 -64 8 0 4 -13 7 -29 6
-17 -1 -28 2 -25 6 3 4 0 8 -5 8 -6 0 -11 -4 -11 -9 0 -4 -14 -7 -31 -5 -22 3
-28 0 -22 -9 4 -6 -4 -5 -18 5 -16 10 -31 13 -39 8 -9 -6 -19 -3 -28 8 -11 14
-13 14 -9 2 4 -13 -7 -16 -63 -15 -39 0 -66 4 -62 9 3 5 -2 6 -12 3 -11 -4
-15 -3 -11 4 4 6 -1 9 -11 7 -12 -2 -18 2 -16 11 2 9 -3 11 -14 7 -13 -5 -14
-4 -6 7 14 17 6 28 -15 20 -14 -6 -73 48 -73 68 0 5 -5 9 -11 9 -5 0 -7 4 -4
10 3 6 -1 7 -9 4 -12 -5 -16 0 -16 17 0 19 -2 21 -10 9 -7 -12 -10 -8 -10 15
0 20 -3 26 -9 17 -6 -10 -11 -9 -22 4 -12 16 -12 17 1 10 8 -4 5 1 -7 10 -13
9 -23 23 -23 30 0 8 -5 14 -11 14 -5 0 -7 5 -4 10 3 6 -2 10 -12 10 -14 0 -15
2 -4 9 11 7 9 10 -8 16 -11 3 -21 11 -21 17 0 6 -8 17 -17 25 -11 8 -12 11 -3
7 8 -4 4 4 -10 19 -14 15 -31 27 -39 27 -8 0 -12 3 -8 6 3 3 -8 19 -24 35 -24
23 -33 27 -53 19 -15 -5 -27 -5 -34 2 -6 6 -12 5 -18 -4z m1566 -143 c14 -19
14 -19 -2 -6 -10 7 -18 18 -18 24 0 6 1 8 3 6 1 -2 9 -13 17 -24z m-290 -105
c0 -5 -5 -10 -11 -10 -5 0 -7 5 -4 10 3 6 8 10 11 10 2 0 4 -4 4 -10z m-1296
-518 c3 -5 -1 -9 -9 -9 -8 0 -12 4 -9 9 3 4 7 8 9 8 2 0 6 -4 9 -8z m1610
-1083 c-3 -5 -10 -7 -15 -3 -5 3 -7 10 -3 15 3 5 10 7 15 3 5 -3 7 -10 3 -15z
m-1624 -124 c5 3 7 0 4 -8 -2 -7 -11 -14 -19 -14 -8 0 -13 3 -10 5 3 3 -3 11
-13 19 -15 13 -15 13 6 3 12 -6 27 -8 32 -5z m-120 -89 c0 -3 -4 -8 -10 -11
-5 -3 -10 -1 -10 4 0 6 5 11 10 11 6 0 10 -2 10 -4z m1860 -152 c0 -2 -9 -4
-21 -4 -11 0 -18 4 -14 10 5 8 35 3 35 -6z m-2035 -14 c-3 -5 -14 -8 -25 -7
-14 1 -16 5 -9 13 11 14 42 7 34 -6z m-105 -85 c11 -13 10 -14 -4 -9 -9 3 -16
10 -16 15 0 13 6 11 20 -6z m-133 -127 c-3 -8 -6 -5 -6 6 -1 11 2 17 5 13 3
-3 4 -12 1 -19z m-123 -114 c9 -24 7 -31 -4 -14 -5 8 -10 10 -10 4 0 -7 -8
-15 -17 -18 -16 -6 -16 -6 0 12 9 10 14 22 10 25 -3 4 -2 7 4 7 6 0 14 -7 17
-16z m-87 -116 c-3 -8 -6 -5 -6 6 -1 11 2 17 5 13 3 -3 4 -12 1 -19z m-40 -51
c0 -8 -6 -14 -14 -14 -17 0 -17 14 0 20 6 3 12 6 13 6 0 1 1 -5 1 -12z m-80
-102 c0 -8 -4 -15 -9 -15 -10 0 -11 14 -1 23 9 10 10 9 10 -8z m-147 -265
c-18 -12 -43 -13 -36 -2 2 4 15 8 28 9 18 2 19 0 8 -7z m2810 -374 c0 -3 -4
-8 -10 -11 -5 -3 -10 -1 -10 4 0 6 5 11 10 11 6 0 10 -2 10 -4z m-2914 -78 c4
4 2 -1 -5 -11 -15 -19 -24 -16 -27 9 -2 11 1 12 10 5 7 -6 17 -7 22 -3z m2912
-283 c-3 -3 -9 2 -12 12 -6 14 -5 15 5 6 7 -7 10 -15 7 -18z m-2925 -10 c-12
-32 -23 -14 -14 23 1 2 5 1 11 -3 5 -3 7 -12 3 -20z m150 -562 c-3 -7 -6 -13
-8 -13 -2 0 -5 6 -8 13 -3 8 1 14 8 14 7 0 11 -6 8 -14z"/>
<path d="M2916 4527 c3 -10 9 -15 12 -12 3 3 0 11 -7 18 -10 9 -11 8 -5 -6z"/>
<path d="M1929 3423 c-13 -16 -12 -17 4 -4 9 7 17 15 17 17 0 8 -8 3 -21 -13z"/>
<path d="M1880 3411 c0 -7 -5 -9 -12 -5 -7 5 -8 3 -3 -5 5 -9 10 -10 18 -2 6
6 8 14 4 18 -4 3 -7 1 -7 -6z"/>
<path d="M2086 3247 c3 -10 9 -15 12 -12 3 3 0 11 -7 18 -10 9 -11 8 -5 -6z"/>
<path d="M2147 3049 c7 -7 15 -10 18 -7 3 3 -2 9 -12 12 -14 6 -15 5 -6 -5z"/>
<path d="M2046 3025 c4 -8 10 -15 16 -15 5 0 6 -5 2 -12 -5 -7 -3 -8 5 -4 9 6
8 13 -5 27 -21 23 -25 24 -18 4z"/>
<path d="M1993 3005 c0 -8 4 -12 8 -9 4 2 10 0 14 -6 3 -5 0 -10 -7 -10 -10 0
-9 -3 2 -9 24 -16 31 -1 13 24 -21 28 -30 31 -30 10z"/>
<path d="M1971 2963 c-1 -18 13 -23 29 -11 12 8 12 9 -2 5 -9 -3 -19 -1 -22 6
-3 9 -5 9 -5 0z"/>
<path d="M1873 2880 c-1 -11 2 -20 7 -20 4 0 7 7 6 15 -3 23 -12 26 -13 5z"/>
<path d="M1640 2671 c0 -6 4 -13 10 -16 6 -3 7 1 4 9 -7 18 -14 21 -14 7z"/>
<path d="M1556 2582 c-3 -5 1 -9 9 -9 8 0 12 4 9 9 -3 4 -7 8 -9 8 -2 0 -6 -4
-9 -8z"/>
<path d="M3945 2580 c-3 -5 1 -10 9 -10 9 0 16 5 16 10 0 6 -4 10 -9 10 -6 0
-13 -4 -16 -10z"/>
<path d="M1415 2420 c3 -5 8 -10 11 -10 2 0 4 5 4 10 0 6 -5 10 -11 10 -5 0
-7 -4 -4 -10z"/>
<path d="M1345 2340 c-3 -6 1 -7 9 -4 18 7 21 14 7 14 -6 0 -13 -4 -16 -10z"/>
<path d="M3980 2206 c0 -2 8 -10 18 -17 15 -13 16 -12 3 4 -13 16 -21 21 -21
13z"/>
<path d="M1180 2100 c-9 -6 -10 -10 -3 -10 6 0 15 5 18 10 8 12 4 12 -15 0z"/>
<path d="M1135 2000 c3 -5 8 -10 11 -10 2 0 4 5 4 10 0 6 -5 10 -11 10 -5 0
-7 -4 -4 -10z"/>
<path d="M1144 1969 c-3 -6 -1 -16 6 -22 10 -9 11 -9 5 2 -4 8 -2 17 6 22 9 6
10 9 2 9 -6 0 -15 -5 -19 -11z"/>
<path d="M3870 1939 c0 -5 5 -7 10 -4 6 3 10 8 10 11 0 2 -4 4 -10 4 -5 0 -10
-5 -10 -11z"/>
<path d="M1076 1848 c3 -5 10 -6 15 -3 13 9 11 12 -6 12 -8 0 -12 -4 -9 -9z"/>
<path d="M1029 1063 c-13 -16 -12 -17 4 -4 9 7 17 15 17 17 0 8 -8 3 -21 -13z"/>
<path d="M1038 983 c-7 -14 -3 -33 6 -33 12 -1 17 28 6 35 -5 3 -10 2 -12 -2z"/>
<path d="M1063 912 c2 -12 6 -24 10 -28 3 -4 4 4 2 16 -6 30 -16 40 -12 12z"/>
<path d="M3370 555 c-11 -13 -10 -14 4 -9 9 3 16 10 16 15 0 13 -6 11 -20 -6z"/>
</g>
</svg>
